# Blender 4.5.4 LTS
# www.blender.org
mtllib Simple_Mushroom.mtl
o Mushroom
v 0.795693 4.446964 -0.795693
v 1.000000 -1.000000 -0.795980
v 0.795693 4.446964 0.795693
v 1.000000 -1.000000 0.795980
v -0.795693 4.446964 -0.795693
v -1.000000 -1.000000 -1.000000
v -0.795693 4.446964 0.795693
v -1.000000 -1.000000 1.000000
v 1.055144 1.486489 -1.055144
v -1.055144 1.486488 1.055144
v 1.055144 1.486489 1.055144
v -1.055144 1.486489 -1.055144
v -0.721065 2.729733 0.721065
v 0.721065 2.729733 -0.721065
v 0.721065 2.729733 0.721065
v -0.721065 2.729733 -0.721065
v 1.501836 0.243244 -1.501836
v 1.501836 0.243244 1.501836
v -1.501836 0.243244 -1.501836
v -1.501836 0.243244 1.501836
v 1.345723 -0.378378 -1.345723
v 1.345723 -0.378378 1.345723
v -1.345723 -0.378378 -1.345723
v -1.345723 -0.378378 1.345723
v -1.334880 0.864866 1.334880
v 1.334880 0.864866 -1.334880
v 1.334880 0.864866 1.334880
v -1.334880 0.864866 -1.334880
v 0.826783 2.108111 -0.826783
v 0.826783 2.108111 0.826783
v -0.826783 2.108111 -0.826783
v -0.826783 2.108110 0.826783
v -2.089526 3.139444 2.089526
v 2.089526 3.139445 -2.089526
v 2.089526 3.139445 2.089526
v -2.089526 3.139445 -2.089526
v 1.117600 3.341838 -1.117600
v 1.117600 3.341838 1.117600
v -1.117600 3.341838 -1.117600
v -1.117600 3.341837 1.117600
v -1.687407 3.793204 1.687407
v 1.687407 3.793204 -1.687407
v 1.687407 3.793204 1.687407
v -1.687407 3.793204 -1.687407
vn 0.2406 0.9404 -0.2406
vn 0.4360 -0.8361 -0.3329
vn 0.2406 0.9404 0.2406
vn 0.4360 -0.8361 0.3329
vn -0.2406 0.9404 -0.2406
vn -0.3878 -0.8378 -0.3842
vn -0.2406 0.9404 0.2406
vn -0.3878 -0.8378 0.3842
vn 0.6089 0.5084 -0.6089
vn -0.6089 0.5084 0.6089
vn 0.6089 0.5084 0.6089
vn -0.6089 0.5084 -0.6089
vn -0.6691 -0.3235 0.6691
vn 0.6691 -0.3235 -0.6691
vn 0.6691 -0.3235 0.6691
vn -0.6691 -0.3235 -0.6691
vn 0.7071 0.0095 -0.7071
vn 0.7071 0.0095 0.7071
vn -0.7071 0.0095 -0.7071
vn -0.7071 0.0095 0.7071
vn 0.6095 -0.4727 -0.6364
vn 0.6095 -0.4727 0.6364
vn -0.6235 -0.4811 -0.6163
vn -0.6235 -0.4811 0.6163
vn -0.6382 0.4307 0.6382
vn 0.6382 0.4307 -0.6382
vn 0.6382 0.4307 0.6382
vn -0.6382 0.4307 -0.6382
vn 0.6571 0.3695 -0.6571
vn 0.6571 0.3695 0.6571
vn -0.6571 0.3695 -0.6571
vn -0.6571 0.3695 0.6571
vn -0.6594 -0.3609 0.6594
vn 0.6594 -0.3609 -0.6594
vn 0.6594 -0.3609 0.6594
vn -0.6594 -0.3609 -0.6594
vn 0.0729 -0.9947 -0.0729
vn 0.0729 -0.9947 0.0729
vn -0.0729 -0.9947 -0.0729
vn -0.0729 -0.9947 0.0729
vn -0.4721 0.7445 0.4721
vn 0.4721 0.7445 -0.4721
vn 0.4721 0.7445 0.4721
vn -0.4721 0.7445 -0.4721
s 1
usemtl Material
f 1//1 5//5 7//7 3//3
f 43//43 3//3 7//7 41//41
f 41//41 7//7 5//5 44//44
f 6//6 2//2 4//4 8//8
f 42//42 1//1 3//3 43//43
f 44//44 5//5 1//1 42//42
f 28//28 12//12 9//9 26//26
f 26//26 9//9 11//11 27//27
f 25//25 10//10 12//12 28//28
f 27//27 11//11 10//10 25//25
f 31//31 16//16 14//14 29//29
f 29//29 14//14 15//15 30//30
f 32//32 13//13 16//16 31//31
f 30//30 15//15 13//13 32//32
f 22//22 18//18 20//20 24//24
f 24//24 20//20 19//19 23//23
f 21//21 17//17 18//18 22//22
f 23//23 19//19 17//17 21//21
f 6//6 23//23 21//21 2//2
f 2//2 21//21 22//22 4//4
f 8//8 24//24 23//23 6//6
f 4//4 22//22 24//24 8//8
f 18//18 27//27 25//25 20//20
f 20//20 25//25 28//28 19//19
f 17//17 26//26 27//27 18//18
f 19//19 28//28 26//26 17//17
f 11//11 30//30 32//32 10//10
f 10//10 32//32 31//31 12//12
f 9//9 29//29 30//30 11//11
f 12//12 31//31 29//29 9//9
f 39//39 36//36 34//34 37//37
f 37//37 34//34 35//35 38//38
f 40//40 33//33 36//36 39//39
f 38//38 35//35 33//33 40//40
f 15//15 38//38 40//40 13//13
f 13//13 40//40 39//39 16//16
f 14//14 37//37 38//38 15//15
f 16//16 39//39 37//37 14//14
f 36//36 44//44 42//42 34//34
f 34//34 42//42 43//43 35//35
f 33//33 41//41 44//44 36//36
f 35//35 43//43 41//41 33//33
